<svg xmlns="http://www.w3.org/2000/svg" viewBox="0 0 4406.32 1593.52" fill="#db3022"><defs><style>.cls-1{fill:grey;}</style></defs><g id="Layer_2" data-name="Layer 2"><g id="Layer_1-2" data-name="Layer 1"><path d="M2778.82,566.16c6.06.51,12.14,1,18.2,1.52C2791.79,565.16,2785.38,565.61,2778.82,566.16Z"/><path d="M1211.6,1091.43l52.48-227.3h170q48.26,0,70,19.29t13.62,54.48q-8.09,35-38.74,54.33T1400,1011.52h-81.91l-18.45,79.91ZM1389.11,913h-48.26l-11.31,49h48.25q21.53,0,31-5.45t12.6-19q3.16-13.67-3.8-19.13T1389.11,913Z"/><path d="M1492.2,1091.43l52.48-227.3H1785.5l-12.88,55.79H1619.86L1613.61,947h123.72l-12.95,56.09H1600.66l-6.88,29.82h160.29l-13.52,58.55Z"/><path d="M1975.35,864.13q29.67,0,46.84,2.85t25.77,8.83A36.36,36.36,0,0,1,2062.73,896q3.76,12.69-.07,29.28a79.62,79.62,0,0,1-18.17,35.42,77.32,77.32,0,0,1-32.6,22.06q13.6,6.3,17.53,15.6t-.43,32.81q-.45,2.61-1.35,7.22-8.15,44.56.56,49.49l-.82,3.53h-97.89q-2.81-7.22,1.54-28,2.48-12.14,3.25-18.75,1.48-12.45-4.34-17.52t-22.26-5.07h-52.56l-16,69.31h-89.29l52.48-227.3Zm-106.43,98.21h51.33q20.13,0,29.46-4.76t11.91-16q2.55-11.07-4.19-15.44t-30-4.38h-49.18Z"/><path d="M2040.81,1091.43l52.47-227.3h226.83l-12.87,55.79H2168.46l-7.13,30.89h113.42l-12.92,55.94H2148.42l-19.55,84.68Z"/><path d="M2294.77,977.86q13.7-59.33,59.24-89.52t121.31-30.2q75.76,0,107.37,30.2t17.91,89.52q-13.67,59.17-59.21,89.37t-121.31,30.2q-75.78,0-107.37-30.2T2294.77,977.86Zm94.67,0q-6.86,29.65,4.51,45.34t39.64,15.67q28.27,0,46.89-15.67t25.45-45.34q6.87-29.82-4.45-45.64t-39.61-15.83q-28.27,0-46.91,15.83T2389.44,977.86Z"/><path d="M2815.47,864.13q29.67,0,46.84,2.85t25.77,8.83A36.31,36.31,0,0,1,2902.85,896q3.77,12.69-.07,29.28a79.62,79.62,0,0,1-18.17,35.42,77.26,77.26,0,0,1-32.6,22.06q13.6,6.3,17.53,15.6t-.42,32.81q-.47,2.61-1.36,7.22-8.15,44.56.56,49.49l-.82,3.53h-97.89q-2.79-7.22,1.54-28,2.49-12.14,3.25-18.75,1.48-12.45-4.33-17.52t-22.27-5.07h-52.56l-16,69.31H2590l52.48-227.3ZM2709,962.34h51.33q20.13,0,29.46-4.76t11.91-16q2.57-11.07-4.19-15.44t-30-4.38h-49.18Z"/><path d="M2889.93,1091.43l52.47-227.3H3073l6.46,138.47L3153,864.13h128.78l-52.47,227.3h-81.61l41-177.5-95.07,177.5h-68.7l-12.5-177.5-41,177.5Z"/><path d="M3242.93,1091.43l151-227.3h111.72l39.43,227.3h-95.43l-2.39-22.28h-96.66l-13.3,22.28Zm141.35-78.38h56.4l-8.9-79.91Z"/><path d="M4016.45,959.57q2.7-21-7.49-32.12t-32.33-11.06q-28.29,0-46.92,15.83t-25.52,45.64q-6.84,29.65,4.52,45.34t39.64,15.67q20.45,0,35.11-9.3t22.89-27.58h101.59q-17.82,47.17-61.73,71.31t-111.38,24.13q-75.76,0-107.36-30.2t-17.95-89.37q13.7-59.33,59.25-89.52t121.3-30.2q70.69,0,103.38,26.21t23.66,75.22Z"/><path d="M4109.66,1092.74l53.08-229.91h243.58l-13,56.43H4238.78l-6.32,27.36H4357.6l-13.1,56.73H4219.36l-7,30.16h162.13l-13.67,59.23Z"/><path class="cls-1" d="M587.18,1352.92c-18.6-20.79-50.6-34.66-95.12-41.24l-74.62-10.94H619l2.15-13.74c7.42-47.57-8.61-83.06-47.66-105.47-37.41-21.45-97-31.88-182.27-31.88-82.39,0-143.63,10.51-187.23,32.14-45.71,22.67-74.63,59-85.94,108-8.55,37-1.82,67.1,20,89.35,20.88,21.3,56,35.13,104.26,41.11l111.25,14.17c20.3,2.62,29.84,6.63,34.27,9.53,6,3.94,5.2,7.42,4.82,9.09-.52,2.24-1.39,6-10.18,9.66-6.48,2.69-19.1,5.91-42.44,5.91-18.65,0-32.67-2.49-41.68-7.41-9.35-5.11-9.91-11-9.52-14.94l1.08-11.12L80,1435.48l-2.83,12.93c-10.31,47.28,3.57,84,41.28,109.13,35.79,23.87,92.37,36,168.17,36,95.93,0,167.34-11.6,218.32-35.45,53.27-24.94,86.54-64.68,98.88-118.11C612.11,1403.83,606.53,1374.55,587.18,1352.92Zm-88.95,182.49c-46.12,21.58-115.34,32.52-205.75,32.52-71.25,0-123.79-11-156.16-32.54-27.3-18.2-39-42.61-35.66-74.36l162.53-.24c1.68,8.2,6.7,16.93,18.67,23.46,12.29,6.72,29.38,10,52.25,10s40.34-2.7,53.69-8.27c16.29-6.77,27.09-18.46,30.43-32.89,2.1-9.13,1.63-22-12.62-31.32-9.12-6-23.19-10.13-43-12.69l-111.31-14.19c-43.52-5.38-74.6-17.3-92.38-35.43-17.07-17.41-22.07-40.18-15.27-69.62,9.14-39.61,31.29-67.65,67.71-85.72,38.62-19.15,97.15-28.87,174-28.87,80,0,137.66,9.8,171.34,29.13,28,16.08,41.16,39.32,39.92,70.8h-154c-2-11.48-8.9-20.68-20.34-27-13.25-7.26-32.21-10.79-58-10.79-19.26,0-34.92,2.74-47.89,8.36-20.17,8.75-26.93,21.5-29,30.67-2.84,12.27,1.33,22.38,11.71,28.49,8,4.7,23.41,8.6,48.48,12.27L482.6,1337c39.62,5.86,67.61,17.65,83.17,35,15,16.79,19.08,39,12.41,67.91C568.07,1483.74,541.92,1515,498.23,1535.41ZM416,1300.54l-59.1-8.67c-28.35-4.14-37.8-7.83-40.92-9.66-3.92-2.31-3.48-4.23-3.12-5.76.25-1.1.92-4,9.23-7.62,8.91-3.86,21.09-5.82,36.2-5.82,21.48,0,37.42,2.77,47.37,8.21,10.77,5.9,11.5,13.51,11.12,18.72Z"/><path class="cls-1" d="M1001.62,1297.1H852.18l31.64-137H704.88L607.6,1581.47H786.53l37-160H972.91l-36.95,160h178.93l97.29-421.39H1033.25Zm51.31-111.43h127.76l-85.48,370.22H967.46l36.94-160H803.79l-36.94,160H639.09l85.47-370.22H852.32l-31.63,137H1021.3Z"/><path class="cls-1" d="M1726,1205c-38.41-36.7-103.76-55.3-194.22-55.3s-164.42,18.6-219.77,55.3c-56.47,37.44-93.61,93.28-110.39,166-16.74,72.51-5.36,128.25,33.83,165.7,38.4,36.69,103.74,55.3,194.22,55.3s164.41-18.61,219.76-55.3c56.47-37.45,93.59-93.19,110.33-165.7C1776.53,1298.23,1765.17,1242.4,1726,1205Zm-87.69,311.51c-49.91,33.08-118.12,49.86-202.73,49.86s-145.08-16.78-179.71-49.86c-34.33-32.8-43.7-80.41-28.66-145.55,15.08-65.32,46.45-113,95.92-145.81,49.91-33.09,118.12-49.87,202.74-49.87s145.08,16.78,179.71,49.87c34.32,32.8,43.67,80.5,28.59,145.81C1719.13,1436.05,1687.77,1483.66,1638.3,1516.46Z"/><path class="cls-1" d="M1508.35,1251.07c-36.33,0-67.25,10.62-91.91,31.56-24.43,20.75-41.25,50.45-50,88.28-8.7,37.68-5.54,67.22,9.37,87.79,15,20.73,41.06,31.25,77.37,31.25s67.19-10.52,91.8-31.25c24.41-20.58,41.2-50.11,49.9-87.79,8.73-37.83,5.63-67.52-9.21-88.28C1570.69,1261.69,1544.67,1251.07,1508.35,1251.07Zm22.24,190c-18.65,15.7-42,23.34-71.48,23.34s-49.31-7.64-60.7-23.34-13.49-39.24-6.36-70.11c7.17-31.07,20.26-54.85,38.91-70.69s42-23.56,71.48-23.56,49.25,7.71,60.6,23.56,13.44,39.62,6.27,70.69C1562.19,1401.78,1549.15,1425.37,1530.59,1441Z"/><path class="cls-1" d="M2133.22,1256.82c-10-7.83-28.36-11.63-56.17-11.63h-96.82l-25.62,111h96.83c27.8,0,47.93-3.8,61.54-11.63,15.33-8.82,25.47-23.53,30.13-43.71C2147.81,1280.44,2144.48,1265.64,2133.22,1256.82Zm-29.46,66.37c-4.79,2.75-17.18,7.36-46.41,7.36H1986.1l13.81-59.78h71.24c29.23,0,39.49,4.62,43,7.37,1.79,1.41,7.27,5.7,3.36,22.66C2113.67,1317.49,2106.21,1321.77,2103.76,1323.19Z"/><path class="cls-1" d="M2310.78,1301.33c10.38-45,1.45-80.34-26.56-105.17-27-23.94-70.37-36.08-128.91-36.08H1846.53l-97.28,421.39h178.93l32.12-139.15h129.85c58.55,0,107.52-12.14,145.57-36.08C2275.19,1381.41,2300.44,1346.12,2310.78,1301.33Zm-85.47,84.3c-32.8,20.63-76.28,31.1-129.25,31.1H1940.62l-32.12,139.16H1780.74l85.47-370.22H2149.4c53,0,91.62,10.46,114.89,31.1,22.58,20,29.42,47.68,20.9,84.56C2276.72,1338,2257.13,1365.61,2225.31,1385.63Z"/><path class="cls-1" d="M2167.53,1581.47h169.3L2372,1429.3h-169.3Zm54.81-126.58h118.13l-23.32,101H2199Z"/><path class="cls-1" d="M2783,1410.2c-8.21,18.27-19.09,31.52-33.24,40.49-14.31,9.07-32.13,13.67-52.94,13.67-29.46,0-49.31-7.64-60.7-23.34s-13.48-39.24-6.35-70.11c7.17-31.07,20.26-54.85,38.9-70.69s42.06-23.56,71.49-23.56c22.4,0,38.76,5.43,48.63,16.14s13.37,26.29,10.64,47.57l-1.47,11.49h200.24l2.46-13.39c11.2-60.9-3.77-108.34-44.51-141-39.59-31.73-102.39-47.82-186.67-47.82-90.48,0-164.41,18.6-219.76,55.3-56.47,37.44-93.61,93.27-110.39,166-16.74,72.51-5.36,128.25,33.82,165.7,38.4,36.69,103.75,55.3,194.23,55.3,80.4,0,148.1-14.8,201.21-44,54.54-30,93.37-74.76,115.4-133.15l5.53-14.64h-202Zm170.48,15.52c-19.83,44-50.55,77-93.51,100.55-48.37,26.58-111.18,40-186.69,40-84.62,0-145.08-16.78-179.71-49.86-34.32-32.8-43.69-80.41-28.66-145.55,15.08-65.32,46.46-113,95.93-145.81,49.9-33.09,118.11-49.87,202.73-49.87,79.08,0,137.4,14.62,173.35,43.43,32.25,25.87,45.38,61.15,39.94,107.61H2826.48c.91-22.23-4.61-40-16.45-52.8-13.7-14.86-35.22-22.4-64-22.4-36.33,0-67.26,10.62-91.92,31.56-24.43,20.75-41.24,50.45-50,88.28-8.7,37.68-5.55,67.22,9.37,87.79,15,20.73,41.05,31.25,77.37,31.25,26.42,0,49.75-6.29,69.35-18.71,17.08-10.83,31-26.12,41.5-45.52Z"/><path class="cls-1" d="M3527.05,1205c-38.41-36.7-103.76-55.3-194.23-55.3s-164.41,18.6-219.76,55.3c-56.47,37.44-93.61,93.27-110.39,166-16.74,72.51-5.36,128.25,33.82,165.7,38.4,36.69,103.75,55.3,194.23,55.3s164.41-18.61,219.76-55.3c56.47-37.45,93.59-93.2,110.33-165.7C3577.59,1298.23,3566.23,1242.4,3527.05,1205Zm-87.69,311.51c-49.91,33.08-118.12,49.86-202.74,49.86s-145.08-16.78-179.71-49.86c-34.32-32.8-43.69-80.41-28.65-145.55,15.08-65.32,46.45-113,95.92-145.81,49.9-33.09,118.12-49.87,202.73-49.87S3472,1192,3506.62,1225.1c34.33,32.8,43.68,80.5,28.6,145.81C3520.19,1436,3488.83,1483.65,3439.36,1516.46Z"/><path class="cls-1" d="M3309.41,1251.07c-36.33,0-67.25,10.62-91.91,31.56-24.44,20.75-41.25,50.45-50,88.28-8.7,37.68-5.55,67.22,9.37,87.79,15,20.73,41.05,31.25,77.37,31.25s67.19-10.52,91.8-31.25c24.41-20.58,41.2-50.11,49.9-87.79s5.63-67.52-9.22-88.28C3371.75,1261.69,3345.73,1251.07,3309.41,1251.07Zm22.23,190c-18.64,15.7-42,23.34-71.48,23.34s-49.31-7.64-60.69-23.34-13.49-39.24-6.36-70.11c7.17-31.07,20.26-54.85,38.9-70.69s42.06-23.56,71.49-23.56,49.25,7.71,60.6,23.56,13.44,39.63,6.27,70.69C3363.25,1401.78,3350.21,1425.36,3331.64,1441Z"/><path class="cls-1" d="M4017.5,1160.08l-110.23,207.77-9.69-207.77h-250l-97.29,421.39h167.43L3772,1346.39l16.56,235.08h138.6l126.43-236-54.49,236h167.69l97.29-421.39Zm129.61,395.81H4030.59L4099,1259.58l-24.17-3.73-160.71,300H3813.48l-21.13-300-25.89,3.69-68.41,296.31H3581.8l85.47-370.22h204.95L3885,1460.15l145.62-274.48h201.95Z"/><path class="cls-1" d="M375.67,977.86q13.69-59.33,59.24-89.52t121.31-30.2q75.76,0,107.37,30.2t17.9,89.52q-13.65,59.17-59.2,89.37T501,1097.43q-75.78,0-107.37-30.2T375.67,977.86Zm94.66,0q-6.84,29.65,4.52,45.34t39.64,15.67q28.29,0,46.88-15.67t25.45-45.34q6.88-29.82-4.44-45.64t-39.61-15.83q-28.28,0-46.91,15.83T470.33,977.86Z"/><path class="cls-1" d="M749.79,1091.43,789,921.77H706.74L720,864.13H972.85l-13.31,57.64H877l-39.17,169.66Z"/><path class="cls-1" d="M893.48,1091.43l151-227.3h111.73l39.43,227.3h-95.44l-2.39-22.28h-96.66l-13.29,22.28Zm141.35-78.38h56.4l-8.91-79.91Z"/><path class="cls-1" d="M2004.21,761.51q-364-20.85-728.85-38.5c-67-3.25-118.76-29.26-166.9-64.3-94.79-69-206.47-105.2-340.55-95.5C659.8,571,557.68,610.34,463,682.89,360.44,766.61,324.07,842,306.86,866.4a10.5,10.5,0,0,0-1.76,1.94l-2,2.87c-.27.3-.56.64-.82.9l.25-.09-59.61,85.71-19.27-93.6H120.07l62.09,163.06-14.83,64.24h88.22l14.83-64.24,137.49-164a45.49,45.49,0,0,0,4.64-5C431.57,834.11,490,765,571.11,713.71c39-22.87,74.35-40.61,100.83-46.3,131.29-28.18,246-10.91,334.58,60.45C1070,779,1144,797.64,1234.27,796.6c309.14-3.55,617.14-1.92,925.57-2.26,22.64,0,603.08,0,625.71,0l3.69-12.49C2713.54,774.94,2080.64,765.89,2004.21,761.51Z"/><path d="M3551.48,1091.08l53.05-229.8h71l40.63,106.87a60.06,60.06,0,0,1,3.45,12.79q1.5,8.26,2.59,20,.45-6.09,1.67-13.42t3.63-17.78l25-108.43h71.32l-53.06,229.8h-71.31L3658.67,985a69.66,69.66,0,0,1-3.5-13.26q-1.58-8.58-2.66-19.65a118.88,118.88,0,0,1-1.35,12.71q-1.07,6.63-3.83,18.64l-24.85,107.65Z"/></g></g></svg>